# xmcd
#
# Track frame offsets: 
#        150
#        24445
#        41868
#        60438
#        80138
#        97431
#        115673
#        133381
#        150578
#        169446
#        186973
#
# Disc length: 2765 seconds
#
# Revision: 1
# Processed by: cddbd v1.5.2PL0 Copyright (c) Steve Scherf et al.
# Submitted via: ExactAudioCopy v1.0b3
#
DISCID=9e0acb0b
DTITLE=Ne-Yo - Libra Scale
DYEAR=2010
DGENRE=R&B
TTITLE0=Champagne Life
TTITLE1=Makin' A Movie
TTITLE2=Know Your Name
TTITLE3=Telekinesis
TTITLE4=Crazy Love feat. Fabolous
TTITLE5=One In A Million
TTITLE6=Genuine Only
TTITLE7=Cause I Said So
TTITLE8=Beautiful Monster
TTITLE9=What Have I Done?
TTITLE10=Beautiful Monster (Tony Moran Edit)
EXTD=
EXTT0=
EXTT1=
EXTT2=
EXTT3=
EXTT4=
EXTT5=
EXTT6=
EXTT7=
EXTT8=
EXTT9=
EXTT10=
PLAYORDER=
